<mxfile host="app.diagrams.net" modified="2023-01-12T03:32:33.433Z" agent="5.0 (Windows NT 10.0; WOW64) AppleWebKit/537.36 (KHTML, like Gecko) Chrome/78.0.3904.108 Safari/537.36" etag="4p4REpjBGsQt-0FfQ2IE" version="20.8.4" type="github">
  <diagram name="Page-1" id="74e2e168-ea6b-b213-b513-2b3c1d86103e">
    <mxGraphModel dx="861" dy="390" grid="1" gridSize="10" guides="1" tooltips="1" connect="1" arrows="1" fold="1" page="1" pageScale="1" pageWidth="1100" pageHeight="850" background="none" math="0" shadow="0">
      <root>
        <mxCell id="0" />
        <mxCell id="1" parent="0" />
        <mxCell id="77e6c97f196da883-1" value="用户扫码下单流程" style="swimlane;html=1;childLayout=stackLayout;startSize=20;rounded=0;shadow=0;labelBackgroundColor=none;strokeWidth=1;fontFamily=Verdana;fontSize=8;align=center;" parent="1" vertex="1">
          <mxGeometry x="90" y="50" width="1120" height="750" as="geometry" />
        </mxCell>
        <mxCell id="77e6c97f196da883-2" value="H5页面" style="swimlane;html=1;startSize=20;" parent="77e6c97f196da883-1" vertex="1">
          <mxGeometry y="20" width="160" height="730" as="geometry" />
        </mxCell>
        <mxCell id="77e6c97f196da883-8" value="二维码" style="rounded=1;whiteSpace=wrap;html=1;shadow=0;labelBackgroundColor=none;strokeWidth=1;fontFamily=Verdana;fontSize=8;align=center;" parent="77e6c97f196da883-2" vertex="1">
          <mxGeometry x="10" y="90" width="100" height="60" as="geometry" />
        </mxCell>
        <mxCell id="H2jUP2HlZGvmZnrN0ayI-14" value="1.填写页面信息" style="edgeStyle=orthogonalEdgeStyle;rounded=0;orthogonalLoop=1;jettySize=auto;html=1;exitX=0.25;exitY=0;exitDx=0;exitDy=0;entryX=1;entryY=0.25;entryDx=0;entryDy=0;fontSize=9;" edge="1" parent="77e6c97f196da883-2" source="77e6c97f196da883-8" target="77e6c97f196da883-8">
          <mxGeometry relative="1" as="geometry" />
        </mxCell>
        <mxCell id="H2jUP2HlZGvmZnrN0ayI-8" value="扫描" style="verticalLabelPosition=bottom;verticalAlign=top;html=1;strokeWidth=2;shape=mxgraph.arrows2.arrow;dy=0.6;dx=40;notch=0;" vertex="1" parent="77e6c97f196da883-2">
          <mxGeometry x="-50" y="110" width="70" height="20" as="geometry" />
        </mxCell>
        <mxCell id="77e6c97f196da883-3" value="团单个缴" style="swimlane;html=1;startSize=20;" parent="77e6c97f196da883-1" vertex="1">
          <mxGeometry x="160" y="20" width="160" height="730" as="geometry" />
        </mxCell>
        <mxCell id="77e6c97f196da883-11" value="3.处理订单申请和调用各个接口" style="rounded=1;whiteSpace=wrap;html=1;shadow=0;labelBackgroundColor=none;strokeWidth=1;fontFamily=Verdana;fontSize=8;align=center;" parent="77e6c97f196da883-3" vertex="1">
          <mxGeometry x="30" y="160" width="100" height="40" as="geometry" />
        </mxCell>
        <mxCell id="H2jUP2HlZGvmZnrN0ayI-19" value="12.更新预录单的状态为已支付，同时更新转保请求对象的完成时间" style="rounded=1;whiteSpace=wrap;html=1;shadow=0;labelBackgroundColor=none;strokeWidth=1;fontFamily=Verdana;fontSize=8;align=center;" vertex="1" parent="77e6c97f196da883-3">
          <mxGeometry x="20" y="310" width="100" height="60" as="geometry" />
        </mxCell>
        <mxCell id="H2jUP2HlZGvmZnrN0ayI-48" value="15.进行退款" style="edgeStyle=orthogonalEdgeStyle;rounded=0;orthogonalLoop=1;jettySize=auto;html=1;exitX=0.5;exitY=1;exitDx=0;exitDy=0;entryX=0.5;entryY=0;entryDx=0;entryDy=0;fontSize=9;" edge="1" parent="77e6c97f196da883-3" source="77e6c97f196da883-17" target="77e6c97f196da883-24">
          <mxGeometry relative="1" as="geometry" />
        </mxCell>
        <mxCell id="77e6c97f196da883-17" value="14.转保失败，发起退费申请" style="rounded=1;whiteSpace=wrap;html=1;shadow=0;labelBackgroundColor=none;strokeWidth=1;fontFamily=Verdana;fontSize=8;align=center;" parent="77e6c97f196da883-3" vertex="1">
          <mxGeometry x="20" y="410" width="100" height="60" as="geometry" />
        </mxCell>
        <mxCell id="77e6c97f196da883-24" value="16.去除转保失败的那个人，系统自动重新发起团单所有人的转保" style="rounded=1;whiteSpace=wrap;html=1;shadow=0;labelBackgroundColor=none;strokeWidth=1;fontFamily=Verdana;fontSize=8;align=center;" parent="77e6c97f196da883-3" vertex="1">
          <mxGeometry x="15" y="530" width="110" height="60" as="geometry" />
        </mxCell>
        <mxCell id="H2jUP2HlZGvmZnrN0ayI-51" value="18.调用接口进行退费" style="rounded=1;whiteSpace=wrap;html=1;shadow=0;labelBackgroundColor=none;strokeWidth=1;fontFamily=Verdana;fontSize=8;align=center;" vertex="1" parent="77e6c97f196da883-3">
          <mxGeometry x="20" y="630" width="100" height="60" as="geometry" />
        </mxCell>
        <mxCell id="77e6c97f196da883-4" value="意建险平台" style="swimlane;html=1;startSize=20;" parent="77e6c97f196da883-1" vertex="1">
          <mxGeometry x="320" y="20" width="160" height="730" as="geometry" />
        </mxCell>
        <mxCell id="H2jUP2HlZGvmZnrN0ayI-37" value="10.进行转保" style="rounded=1;whiteSpace=wrap;html=1;shadow=0;labelBackgroundColor=none;strokeWidth=1;fontFamily=Verdana;fontSize=8;align=center;" vertex="1" parent="77e6c97f196da883-4">
          <mxGeometry x="40" y="310" width="100" height="60" as="geometry" />
        </mxCell>
        <mxCell id="77e6c97f196da883-5" value="交易域" style="swimlane;html=1;startSize=20;" parent="77e6c97f196da883-1" vertex="1">
          <mxGeometry x="480" y="20" width="160" height="730" as="geometry" />
        </mxCell>
        <mxCell id="H2jUP2HlZGvmZnrN0ayI-32" value="8.创建订单" style="rounded=1;whiteSpace=wrap;html=1;shadow=0;labelBackgroundColor=none;strokeWidth=1;fontFamily=Verdana;fontSize=8;align=center;" vertex="1" parent="77e6c97f196da883-5">
          <mxGeometry x="30" y="155" width="100" height="50" as="geometry" />
        </mxCell>
        <mxCell id="77e6c97f196da883-6" value="&lt;div class=&quot;lake-content&quot;&gt;集中收款平台&lt;/div&gt;" style="swimlane;html=1;startSize=20;" parent="77e6c97f196da883-1" vertex="1">
          <mxGeometry x="640" y="20" width="160" height="730" as="geometry" />
        </mxCell>
        <mxCell id="H2jUP2HlZGvmZnrN0ayI-30" value="5.创建订单" style="rounded=1;whiteSpace=wrap;html=1;shadow=0;labelBackgroundColor=none;strokeWidth=1;fontFamily=Verdana;fontSize=8;align=center;" vertex="1" parent="77e6c97f196da883-6">
          <mxGeometry x="40" y="40" width="100" height="60" as="geometry" />
        </mxCell>
        <mxCell id="77e6c97f196da883-7" value="客户域" style="swimlane;html=1;startSize=20;" parent="77e6c97f196da883-1" vertex="1">
          <mxGeometry x="800" y="20" width="160" height="730" as="geometry" />
        </mxCell>
        <mxCell id="H2jUP2HlZGvmZnrN0ayI-16" style="swimlane;html=1;startSize=20;" vertex="1" parent="77e6c97f196da883-1">
          <mxGeometry x="960" y="20" width="160" height="730" as="geometry" />
        </mxCell>
        <mxCell id="H2jUP2HlZGvmZnrN0ayI-15" value="2.发起订单申请" style="edgeStyle=orthogonalEdgeStyle;rounded=0;orthogonalLoop=1;jettySize=auto;html=1;exitX=1;exitY=0.5;exitDx=0;exitDy=0;entryX=0;entryY=0.5;entryDx=0;entryDy=0;fontSize=9;" edge="1" parent="77e6c97f196da883-1" source="77e6c97f196da883-8" target="77e6c97f196da883-11">
          <mxGeometry relative="1" as="geometry" />
        </mxCell>
        <mxCell id="H2jUP2HlZGvmZnrN0ayI-24" value="13.转保失败" style="edgeStyle=orthogonalEdgeStyle;rounded=0;orthogonalLoop=1;jettySize=auto;html=1;exitX=0.5;exitY=1;exitDx=0;exitDy=0;entryX=1;entryY=0.5;entryDx=0;entryDy=0;fontSize=9;" edge="1" parent="77e6c97f196da883-1" source="H2jUP2HlZGvmZnrN0ayI-37" target="77e6c97f196da883-17">
          <mxGeometry relative="1" as="geometry">
            <mxPoint x="440" y="270" as="sourcePoint" />
          </mxGeometry>
        </mxCell>
        <mxCell id="H2jUP2HlZGvmZnrN0ayI-31" value="4.如果选择老平台支付方式" style="edgeStyle=orthogonalEdgeStyle;rounded=0;orthogonalLoop=1;jettySize=auto;html=1;exitX=0.75;exitY=0;exitDx=0;exitDy=0;entryX=0;entryY=0.5;entryDx=0;entryDy=0;fontSize=9;" edge="1" parent="77e6c97f196da883-1" source="77e6c97f196da883-11" target="H2jUP2HlZGvmZnrN0ayI-30">
          <mxGeometry relative="1" as="geometry">
            <Array as="points">
              <mxPoint x="210" y="180" />
              <mxPoint x="210" y="90" />
            </Array>
          </mxGeometry>
        </mxCell>
        <mxCell id="H2jUP2HlZGvmZnrN0ayI-38" value="11.转保成功" style="edgeStyle=orthogonalEdgeStyle;rounded=0;orthogonalLoop=1;jettySize=auto;html=1;exitX=0;exitY=0.5;exitDx=0;exitDy=0;entryX=1;entryY=0.5;entryDx=0;entryDy=0;fontSize=9;" edge="1" parent="77e6c97f196da883-1">
          <mxGeometry relative="1" as="geometry">
            <mxPoint x="358" y="360" as="sourcePoint" />
            <mxPoint x="278" y="360" as="targetPoint" />
            <mxPoint as="offset" />
          </mxGeometry>
        </mxCell>
        <mxCell id="H2jUP2HlZGvmZnrN0ayI-39" value="7.如果选择新平台的支付方式" style="edgeStyle=orthogonalEdgeStyle;rounded=0;orthogonalLoop=1;jettySize=auto;html=1;exitX=1;exitY=0.5;exitDx=0;exitDy=0;entryX=0;entryY=0.5;entryDx=0;entryDy=0;fontSize=9;" edge="1" parent="77e6c97f196da883-1" source="77e6c97f196da883-11" target="H2jUP2HlZGvmZnrN0ayI-32">
          <mxGeometry relative="1" as="geometry" />
        </mxCell>
        <mxCell id="H2jUP2HlZGvmZnrN0ayI-40" value="6.返回支付编号和支付链接" style="edgeStyle=orthogonalEdgeStyle;rounded=0;orthogonalLoop=1;jettySize=auto;html=1;exitX=0.25;exitY=1;exitDx=0;exitDy=0;fontSize=9;" edge="1" parent="77e6c97f196da883-1" source="H2jUP2HlZGvmZnrN0ayI-30" target="77e6c97f196da883-11">
          <mxGeometry relative="1" as="geometry" />
        </mxCell>
        <mxCell id="H2jUP2HlZGvmZnrN0ayI-43" style="edgeStyle=orthogonalEdgeStyle;rounded=0;orthogonalLoop=1;jettySize=auto;html=1;exitX=0.5;exitY=1;exitDx=0;exitDy=0;entryX=1;entryY=0.5;entryDx=0;entryDy=0;fontSize=9;" edge="1" parent="77e6c97f196da883-1" source="H2jUP2HlZGvmZnrN0ayI-30" target="H2jUP2HlZGvmZnrN0ayI-37">
          <mxGeometry relative="1" as="geometry" />
        </mxCell>
        <mxCell id="H2jUP2HlZGvmZnrN0ayI-44" value="9.转保申请" style="edgeStyle=orthogonalEdgeStyle;rounded=0;orthogonalLoop=1;jettySize=auto;html=1;exitX=0.5;exitY=1;exitDx=0;exitDy=0;entryX=1;entryY=0.5;entryDx=0;entryDy=0;fontSize=9;" edge="1" parent="77e6c97f196da883-1" source="H2jUP2HlZGvmZnrN0ayI-32" target="H2jUP2HlZGvmZnrN0ayI-37">
          <mxGeometry relative="1" as="geometry" />
        </mxCell>
        <mxCell id="H2jUP2HlZGvmZnrN0ayI-45" value="" style="edgeStyle=orthogonalEdgeStyle;rounded=0;orthogonalLoop=1;jettySize=auto;html=1;fontSize=9;" edge="1" parent="77e6c97f196da883-1" source="H2jUP2HlZGvmZnrN0ayI-19" target="H2jUP2HlZGvmZnrN0ayI-37">
          <mxGeometry relative="1" as="geometry" />
        </mxCell>
        <mxCell id="H2jUP2HlZGvmZnrN0ayI-49" style="edgeStyle=orthogonalEdgeStyle;rounded=0;orthogonalLoop=1;jettySize=auto;html=1;exitX=1;exitY=0.5;exitDx=0;exitDy=0;entryX=0.75;entryY=1;entryDx=0;entryDy=0;fontSize=9;" edge="1" parent="77e6c97f196da883-1" source="77e6c97f196da883-24" target="H2jUP2HlZGvmZnrN0ayI-37">
          <mxGeometry relative="1" as="geometry" />
        </mxCell>
        <mxCell id="H2jUP2HlZGvmZnrN0ayI-50" value="17，页面上查看订单，手动发起退费申请" style="edgeStyle=orthogonalEdgeStyle;rounded=0;orthogonalLoop=1;jettySize=auto;html=1;exitX=0.5;exitY=1;exitDx=0;exitDy=0;fontSize=9;entryX=0;entryY=0.5;entryDx=0;entryDy=0;" edge="1" parent="77e6c97f196da883-1" source="77e6c97f196da883-8" target="H2jUP2HlZGvmZnrN0ayI-51">
          <mxGeometry relative="1" as="geometry">
            <mxPoint x="60" y="672" as="targetPoint" />
          </mxGeometry>
        </mxCell>
        <mxCell id="H2jUP2HlZGvmZnrN0ayI-1" value="客户" style="shape=umlActor;verticalLabelPosition=bottom;verticalAlign=top;html=1;outlineConnect=0;" vertex="1" parent="1">
          <mxGeometry x="10" y="160" width="30" height="60" as="geometry" />
        </mxCell>
      </root>
    </mxGraphModel>
  </diagram>
</mxfile>
